<svg xmlns="http://www.w3.org/2000/svg" xmlns:xlink="http://www.w3.org/1999/xlink" width="1080" zoomAndPan="magnify" viewBox="0 0 810 809.999993" height="1080" preserveAspectRatio="xMidYMid meet" version="1.0"><defs><g/><clipPath id="3daa1c6ce2"><path d="M 165.15625 292.597656 L 645 292.597656 L 645 480.933594 L 165.15625 480.933594 Z M 165.15625 292.597656 " clip-rule="nonzero"/></clipPath><clipPath id="892f80898b"><path d="M 203.40625 292.597656 L 606.59375 292.597656 C 616.738281 292.597656 626.46875 296.628906 633.640625 303.800781 C 640.8125 310.972656 644.84375 320.703125 644.84375 330.847656 L 644.84375 442.683594 C 644.84375 452.828125 640.8125 462.558594 633.640625 469.730469 C 626.46875 476.90625 616.738281 480.933594 606.59375 480.933594 L 203.40625 480.933594 C 193.261719 480.933594 183.53125 476.90625 176.359375 469.730469 C 169.1875 462.558594 165.15625 452.828125 165.15625 442.683594 L 165.15625 330.847656 C 165.15625 320.703125 169.1875 310.972656 176.359375 303.800781 C 183.53125 296.628906 193.261719 292.597656 203.40625 292.597656 Z M 203.40625 292.597656 " clip-rule="nonzero"/></clipPath><clipPath id="6ce4408955"><path d="M 0.15625 0.597656 L 479.878906 0.597656 L 479.878906 188.933594 L 0.15625 188.933594 Z M 0.15625 0.597656 " clip-rule="nonzero"/></clipPath><clipPath id="c4af70d475"><path d="M 38.40625 0.597656 L 441.59375 0.597656 C 451.738281 0.597656 461.46875 4.628906 468.640625 11.800781 C 475.8125 18.972656 479.84375 28.703125 479.84375 38.847656 L 479.84375 150.683594 C 479.84375 160.828125 475.8125 170.558594 468.640625 177.730469 C 461.46875 184.90625 451.738281 188.933594 441.59375 188.933594 L 38.40625 188.933594 C 28.261719 188.933594 18.53125 184.90625 11.359375 177.730469 C 4.1875 170.558594 0.15625 160.828125 0.15625 150.683594 L 0.15625 38.847656 C 0.15625 28.703125 4.1875 18.972656 11.359375 11.800781 C 18.53125 4.628906 28.261719 0.597656 38.40625 0.597656 Z M 38.40625 0.597656 " clip-rule="nonzero"/></clipPath><clipPath id="75aaef1c77"><rect x="0" width="480" y="0" height="189"/></clipPath><clipPath id="5500e6ca01"><path d="M 165.160156 292.597656 L 645 292.597656 L 645 480.847656 L 165.160156 480.847656 Z M 165.160156 292.597656 " clip-rule="nonzero"/></clipPath><clipPath id="838e0900d7"><path d="M 203.410156 292.597656 L 606.585938 292.597656 C 616.730469 292.597656 626.460938 296.628906 633.632812 303.800781 C 640.804688 310.972656 644.835938 320.703125 644.835938 330.847656 L 644.835938 442.679688 C 644.835938 452.824219 640.804688 462.554688 633.632812 469.726562 C 626.460938 476.898438 616.730469 480.929688 606.585938 480.929688 L 203.410156 480.929688 C 193.265625 480.929688 183.535156 476.898438 176.363281 469.726562 C 169.191406 462.554688 165.160156 452.824219 165.160156 442.679688 L 165.160156 330.847656 C 165.160156 320.703125 169.191406 310.972656 176.363281 303.800781 C 183.535156 296.628906 193.265625 292.597656 203.410156 292.597656 Z M 203.410156 292.597656 " clip-rule="nonzero"/></clipPath><clipPath id="936d236108"><rect x="0" width="239" y="0" height="57"/></clipPath><clipPath id="c8c227f85d"><path d="M 186.117188 372 L 242 372 L 242 451 L 186.117188 451 Z M 186.117188 372 " clip-rule="nonzero"/></clipPath><clipPath id="6dcb613b91"><path d="M 507 350.855469 L 630.824219 350.855469 L 630.824219 470 L 507 470 Z M 507 350.855469 " clip-rule="nonzero"/></clipPath></defs><rect x="-81" width="972" fill="#ffffff" y="-80.999999" height="971.999992" fill-opacity="1"/><rect x="-81" width="972" fill="#ffffff" y="-80.999999" height="971.999992" fill-opacity="1"/><g clip-path="url(#3daa1c6ce2)"><g clip-path="url(#892f80898b)"><g transform="matrix(1, 0, 0, 1, 165, 292)"><g clip-path="url(#75aaef1c77)"><g clip-path="url(#6ce4408955)"><g clip-path="url(#c4af70d475)"><path fill="#ffffff" d="M 0.15625 0.597656 L 479.824219 0.597656 L 479.824219 188.933594 L 0.15625 188.933594 Z M 0.15625 0.597656 " fill-opacity="1" fill-rule="nonzero"/></g></g></g></g></g></g><g clip-path="url(#5500e6ca01)"><g clip-path="url(#838e0900d7)"><path stroke-linecap="butt" transform="matrix(0.75, 0, 0, 0.75, 165.159751, 292.597973)" fill="none" stroke-linejoin="miter" d="M 51.000543 -0.000422706 L 588.568278 -0.000422706 C 602.09432 -0.000422706 615.068279 5.374578 624.63078 14.937078 C 634.19328 24.499579 639.568281 37.473538 639.568281 50.99958 L 639.568281 200.108962 C 639.568281 213.635005 634.19328 226.608964 624.63078 236.171464 C 615.068279 245.733965 602.09432 251.108965 588.568278 251.108965 L 51.000543 251.108965 C 37.4745 251.108965 24.500541 245.733965 14.938041 236.171464 C 5.37554 226.608964 0.000540079 213.635005 0.000540079 200.108962 L 0.000540079 50.99958 C 0.000540079 37.473538 5.37554 24.499579 14.938041 14.937078 C 24.500541 5.374578 37.4745 -0.000422706 51.000543 -0.000422706 Z M 51.000543 -0.000422706 " stroke="#a7be39" stroke-width="14" stroke-opacity="1" stroke-miterlimit="4"/></g></g><g transform="matrix(1, 0, 0, 1, 201, 310)"><g clip-path="url(#936d236108)"><g fill="#545454" fill-opacity="1"><g transform="translate(1.061417, 45.261578)"><g><path d="M 3.609375 0 L 3.609375 -25.703125 L 7.5625 -25.703125 L 7.5625 0 Z M 5.625 -29.984375 C 4.851562 -29.984375 4.191406 -30.242188 3.640625 -30.765625 C 3.085938 -31.296875 2.8125 -31.929688 2.8125 -32.671875 C 2.8125 -33.398438 3.085938 -34.023438 3.640625 -34.546875 C 4.191406 -35.078125 4.851562 -35.34375 5.625 -35.34375 C 6.394531 -35.34375 7.054688 -35.078125 7.609375 -34.546875 C 8.160156 -34.023438 8.4375 -33.398438 8.4375 -32.671875 C 8.4375 -31.929688 8.160156 -31.296875 7.609375 -30.765625 C 7.054688 -30.242188 6.394531 -29.984375 5.625 -29.984375 Z M 5.625 -29.984375 "/></g></g></g><g fill="#545454" fill-opacity="1"><g transform="translate(12.239804, 45.261578)"><g><path d="M 7.5625 -15.46875 L 7.5625 0 L 3.609375 0 L 3.609375 -25.703125 L 7.4375 -25.703125 L 7.4375 -21.6875 L 7.765625 -21.6875 C 8.367188 -22.988281 9.28125 -24.039062 10.5 -24.84375 C 11.726562 -25.644531 13.316406 -26.046875 15.265625 -26.046875 C 17.859375 -26.046875 19.957031 -25.242188 21.5625 -23.640625 C 23.164062 -22.046875 23.96875 -19.609375 23.96875 -16.328125 L 23.96875 0 L 20.015625 0 L 20.015625 -16.0625 C 20.015625 -18.082031 19.488281 -19.65625 18.4375 -20.78125 C 17.394531 -21.914062 15.957031 -22.484375 14.125 -22.484375 C 12.238281 -22.484375 10.671875 -21.875 9.421875 -20.65625 C 8.179688 -19.4375 7.5625 -17.707031 7.5625 -15.46875 Z M 7.5625 -15.46875 "/></g></g></g><g fill="#545454" fill-opacity="1"><g transform="translate(39.81762, 45.261578)"><g/></g></g><g fill="#545454" fill-opacity="1"><g transform="translate(53.071032, 45.261578)"><g><path d="M 7.5625 -34.265625 L 7.5625 0 L 3.609375 0 L 3.609375 -34.265625 Z M 7.5625 -34.265625 "/></g></g></g><g fill="#545454" fill-opacity="1"><g transform="translate(64.24942, 45.261578)"><g><path d="M 3.609375 0 L 3.609375 -25.703125 L 7.5625 -25.703125 L 7.5625 0 Z M 5.625 -29.984375 C 4.851562 -29.984375 4.191406 -30.242188 3.640625 -30.765625 C 3.085938 -31.296875 2.8125 -31.929688 2.8125 -32.671875 C 2.8125 -33.398438 3.085938 -34.023438 3.640625 -34.546875 C 4.191406 -35.078125 4.851562 -35.34375 5.625 -35.34375 C 6.394531 -35.34375 7.054688 -35.078125 7.609375 -34.546875 C 8.160156 -34.023438 8.4375 -33.398438 8.4375 -32.671875 C 8.4375 -31.929688 8.160156 -31.296875 7.609375 -30.765625 C 7.054688 -30.242188 6.394531 -29.984375 5.625 -29.984375 Z M 5.625 -29.984375 "/></g></g></g><g fill="#545454" fill-opacity="1"><g transform="translate(75.427807, 45.261578)"><g><path d="M 7.5625 -15.46875 L 7.5625 0 L 3.609375 0 L 3.609375 -25.703125 L 7.4375 -25.703125 L 7.4375 -21.6875 L 7.765625 -21.6875 C 8.367188 -22.988281 9.28125 -24.039062 10.5 -24.84375 C 11.726562 -25.644531 13.316406 -26.046875 15.265625 -26.046875 C 17.859375 -26.046875 19.957031 -25.242188 21.5625 -23.640625 C 23.164062 -22.046875 23.96875 -19.609375 23.96875 -16.328125 L 23.96875 0 L 20.015625 0 L 20.015625 -16.0625 C 20.015625 -18.082031 19.488281 -19.65625 18.4375 -20.78125 C 17.394531 -21.914062 15.957031 -22.484375 14.125 -22.484375 C 12.238281 -22.484375 10.671875 -21.875 9.421875 -20.65625 C 8.179688 -19.4375 7.5625 -17.707031 7.5625 -15.46875 Z M 7.5625 -15.46875 "/></g></g></g><g fill="#545454" fill-opacity="1"><g transform="translate(103.005623, 45.261578)"><g><path d="M 14.390625 0.53125 C 11.910156 0.53125 9.773438 -0.015625 7.984375 -1.109375 C 6.203125 -2.210938 4.828125 -3.753906 3.859375 -5.734375 C 2.890625 -7.710938 2.40625 -10.019531 2.40625 -12.65625 C 2.40625 -15.28125 2.890625 -17.597656 3.859375 -19.609375 C 4.828125 -21.628906 6.175781 -23.207031 7.90625 -24.34375 C 9.644531 -25.476562 11.671875 -26.046875 13.984375 -26.046875 C 15.328125 -26.046875 16.648438 -25.820312 17.953125 -25.375 C 19.265625 -24.925781 20.453125 -24.203125 21.515625 -23.203125 C 22.585938 -22.203125 23.441406 -20.878906 24.078125 -19.234375 C 24.710938 -17.597656 25.03125 -15.582031 25.03125 -13.1875 L 25.03125 -11.515625 L 6.375 -11.515625 C 6.46875 -8.765625 7.242188 -6.660156 8.703125 -5.203125 C 10.171875 -3.742188 12.066406 -3.015625 14.390625 -3.015625 C 15.941406 -3.015625 17.273438 -3.347656 18.390625 -4.015625 C 19.503906 -4.679688 20.3125 -5.6875 20.8125 -7.03125 L 24.640625 -5.953125 C 24.035156 -4.015625 22.828125 -2.445312 21.015625 -1.25 C 19.210938 -0.0625 17.003906 0.53125 14.390625 0.53125 Z M 6.375 -14.921875 L 21.015625 -14.921875 C 21.015625 -17.097656 20.378906 -18.898438 19.109375 -20.328125 C 17.835938 -21.765625 16.128906 -22.484375 13.984375 -22.484375 C 12.484375 -22.484375 11.179688 -22.132812 10.078125 -21.4375 C 8.972656 -20.738281 8.101562 -19.8125 7.46875 -18.65625 C 6.832031 -17.5 6.46875 -16.253906 6.375 -14.921875 Z M 6.375 -14.921875 "/></g></g></g><g fill="#545454" fill-opacity="1"><g transform="translate(130.449571, 45.261578)"><g/></g></g><g fill="#545454" fill-opacity="1"><g transform="translate(143.702969, 45.261578)"><g><path d="M 9.4375 0 L 1.609375 -25.703125 L 5.75 -25.703125 L 11.3125 -6.03125 L 11.578125 -6.03125 L 17.0625 -25.703125 L 21.28125 -25.703125 L 26.703125 -6.09375 L 26.96875 -6.09375 L 32.53125 -25.703125 L 36.6875 -25.703125 L 28.84375 0 L 24.96875 0 L 19.34375 -19.75 L 18.9375 -19.75 L 13.328125 0 Z M 9.4375 0 "/></g></g></g><g fill="#545454" fill-opacity="1"><g transform="translate(181.990622, 45.261578)"><g><path d="M 3.609375 0 L 3.609375 -25.703125 L 7.5625 -25.703125 L 7.5625 0 Z M 5.625 -29.984375 C 4.851562 -29.984375 4.191406 -30.242188 3.640625 -30.765625 C 3.085938 -31.296875 2.8125 -31.929688 2.8125 -32.671875 C 2.8125 -33.398438 3.085938 -34.023438 3.640625 -34.546875 C 4.191406 -35.078125 4.851562 -35.34375 5.625 -35.34375 C 6.394531 -35.34375 7.054688 -35.078125 7.609375 -34.546875 C 8.160156 -34.023438 8.4375 -33.398438 8.4375 -32.671875 C 8.4375 -31.929688 8.160156 -31.296875 7.609375 -30.765625 C 7.054688 -30.242188 6.394531 -29.984375 5.625 -29.984375 Z M 5.625 -29.984375 "/></g></g></g><g fill="#545454" fill-opacity="1"><g transform="translate(193.169016, 45.261578)"><g><path d="M 14.796875 -25.703125 L 14.796875 -22.359375 L 9.296875 -22.359375 L 9.296875 -7.359375 C 9.296875 -6.242188 9.460938 -5.410156 9.796875 -4.859375 C 10.128906 -4.304688 10.550781 -3.9375 11.0625 -3.75 C 11.582031 -3.570312 12.132812 -3.484375 12.71875 -3.484375 C 13.15625 -3.484375 13.507812 -3.503906 13.78125 -3.546875 C 14.0625 -3.597656 14.285156 -3.644531 14.453125 -3.6875 L 15.265625 -0.140625 C 14.992188 -0.0351562 14.617188 0.0664062 14.140625 0.171875 C 13.660156 0.273438 13.050781 0.328125 12.3125 0.328125 C 11.195312 0.328125 10.109375 0.0859375 9.046875 -0.390625 C 7.984375 -0.867188 7.101562 -1.597656 6.40625 -2.578125 C 5.707031 -3.554688 5.359375 -4.796875 5.359375 -6.296875 L 5.359375 -22.359375 L 1.46875 -22.359375 L 1.46875 -25.703125 L 5.359375 -25.703125 L 5.359375 -31.859375 L 9.296875 -31.859375 L 9.296875 -25.703125 Z M 14.796875 -25.703125 "/></g></g></g><g fill="#545454" fill-opacity="1"><g transform="translate(210.304744, 45.261578)"><g><path d="M 7.5625 -15.46875 L 7.5625 0 L 3.609375 0 L 3.609375 -34.265625 L 7.5625 -34.265625 L 7.5625 -21.6875 L 7.90625 -21.6875 C 8.5 -23.019531 9.398438 -24.078125 10.609375 -24.859375 C 11.828125 -25.648438 13.445312 -26.046875 15.46875 -26.046875 C 18.09375 -26.046875 20.207031 -25.25 21.8125 -23.65625 C 23.425781 -22.070312 24.234375 -19.628906 24.234375 -16.328125 L 24.234375 0 L 20.28125 0 L 20.28125 -16.0625 C 20.28125 -18.101562 19.753906 -19.679688 18.703125 -20.796875 C 17.648438 -21.921875 16.191406 -22.484375 14.328125 -22.484375 C 12.367188 -22.484375 10.75 -21.875 9.46875 -20.65625 C 8.195312 -19.4375 7.5625 -17.707031 7.5625 -15.46875 Z M 7.5625 -15.46875 "/></g></g></g></g></g><path fill="#a6b900" d="M 365.402344 373.304688 L 365.402344 383.691406 L 386.667969 383.691406 L 386.667969 449.542969 L 398.226562 449.542969 L 398.226562 383.691406 L 439.109375 383.691406 L 442.917969 373.304688 Z M 365.402344 373.304688 " fill-opacity="1" fill-rule="nonzero"/><g clip-path="url(#c8c227f85d)"><path fill="#918f81" d="M 213.515625 418.167969 L 229.78125 418.167969 L 229.78125 422.453125 C 229.78125 427.375 228.816406 431.234375 226.035156 434.445312 C 223.039062 437.976562 218.542969 439.90625 213.515625 439.90625 C 208.910156 439.90625 205.0625 438.191406 202.171875 435.191406 C 198.425781 431.121094 197.675781 426.519531 197.675781 411.425781 C 197.675781 396.328125 198.425781 391.71875 202.171875 387.652344 C 205.0625 384.65625 208.910156 382.941406 213.515625 382.941406 C 222.078125 382.941406 227.636719 387.867188 229.566406 396.21875 L 241.121094 396.21875 C 239.089844 383.265625 229.566406 372.664062 213.515625 372.664062 C 205.164062 372.664062 198.746094 375.449219 193.824219 380.371094 C 186.4375 387.867188 186.121094 395.46875 186.121094 411.425781 C 186.121094 427.375 186.4375 434.976562 193.824219 442.472656 C 198.746094 447.398438 205.164062 450.183594 213.515625 450.183594 C 221.539062 450.183594 228.816406 447.507812 234.488281 441.511719 C 239.515625 436.050781 241.335938 429.949219 241.335938 419.988281 L 241.335938 408.320312 L 213.515625 408.320312 Z M 213.515625 418.167969 " fill-opacity="1" fill-rule="nonzero"/></g><path fill="#918f81" d="M 264.039062 407.566406 L 264.039062 383.691406 L 281.167969 383.691406 C 288.871094 383.691406 294.113281 388.1875 294.113281 395.683594 C 294.113281 403.179688 288.871094 407.566406 281.167969 407.566406 Z M 305.671875 395.578125 C 305.671875 382.621094 296.46875 373.304688 282.019531 373.304688 L 252.484375 373.304688 L 252.484375 449.542969 L 264.039062 449.542969 L 264.039062 417.417969 L 278.488281 417.417969 L 294.539062 449.542969 L 308.023438 449.542969 L 290.472656 415.816406 C 299.035156 413.457031 305.671875 406.496094 305.671875 395.578125 " fill-opacity="1" fill-rule="nonzero"/><path fill="#918f81" d="M 316.710938 373.304688 L 316.710938 449.542969 L 365.402344 449.542969 L 365.402344 439.15625 L 328.269531 439.15625 L 328.269531 416.242188 L 359.949219 416.242188 L 359.949219 405.964844 L 328.269531 405.964844 L 328.269531 383.691406 L 365.402344 383.691406 L 365.402344 373.304688 Z M 316.710938 373.304688 " fill-opacity="1" fill-rule="nonzero"/><path fill="#918f81" d="M 435.960938 424.378906 L 447.839844 390.546875 L 459.394531 424.378906 Z M 452.226562 373.304688 L 442.917969 373.304688 L 414.984375 449.542969 L 427.292969 449.542969 L 432.535156 434.226562 L 462.605469 434.226562 L 467.851562 449.542969 L 480.15625 449.542969 Z M 452.226562 373.304688 " fill-opacity="1" fill-rule="nonzero"/><g clip-path="url(#6dcb613b91)"><path fill="#a6b900" d="M 602.773438 413.378906 C 595.144531 413.378906 588.238281 416.4375 583.179688 421.382812 L 546.6875 408.144531 C 547.140625 406.472656 547.402344 404.722656 547.402344 402.902344 C 547.402344 400.007812 546.773438 397.257812 545.671875 394.773438 L 574.554688 370.445312 C 576.792969 373.433594 580.320312 375.390625 584.335938 375.390625 C 591.105469 375.390625 596.597656 369.898438 596.597656 363.125 C 596.597656 356.347656 591.105469 350.855469 584.335938 350.855469 C 577.566406 350.855469 572.078125 356.347656 572.078125 363.125 C 572.078125 364.890625 572.464844 366.558594 573.136719 368.074219 L 541.105469 388.320312 C 537.507812 384.917969 532.664062 382.8125 527.324219 382.8125 C 516.230469 382.8125 507.238281 391.808594 507.238281 402.902344 C 507.238281 414 516.230469 422.996094 527.324219 422.996094 C 533.964844 422.996094 539.835938 419.757812 543.496094 414.78125 L 575.46875 435.109375 C 575 437.148438 574.726562 439.261719 574.726562 441.445312 C 574.726562 456.945312 587.28125 469.511719 602.773438 469.511719 C 618.265625 469.511719 630.824219 456.945312 630.824219 441.445312 C 630.824219 425.945312 618.265625 413.378906 602.773438 413.378906 " fill-opacity="1" fill-rule="nonzero"/></g></svg>